<svg xmlns="http://www.w3.org/2000/svg" viewBox="0 0 128 128">
  <defs>
    <linearGradient id="body" x1="0" y1="0" x2="0" y2="1">
      <stop offset="0" stop-color="#343a40"/>
      <stop offset="1" stop-color="#15191e"/>
    </linearGradient>
    <linearGradient id="screen" x1="0" y1="0" x2="0" y2="1">
      <stop offset="0" stop-color="#ffffff"/>
      <stop offset="1" stop-color="#e9ecef"/>
    </linearGradient>
  </defs>
  <ellipse cx="64" cy="114" rx="43" ry="5" fill="#000" opacity=".16"/>
  <path d="M51 25 38 9M77 25 90 9" stroke="#1a1e23" stroke-width="6" stroke-linecap="round"/>
  <circle cx="38" cy="9" r="4" fill="#1a1e23"/>
  <circle cx="90" cy="9" r="4" fill="#1a1e23"/>
  <rect x="13" y="24" width="102" height="78" rx="19" fill="url(#body)"/>
  <rect x="19" y="30" width="90" height="66" rx="16" fill="#0f1317"/>
  <rect x="26" y="37" width="76" height="52" rx="12" fill="url(#screen)"/>
  <path d="M84 48
           C78 42 68 40 57 40
           C46 40 39 45 39 52
           C39 59 45 62 56 65
           C67 68 74 70 74 77
           C74 84 67 88 57 88
           C47 88 39 84 34 78"
        fill="none" stroke="#171b20" stroke-width="8" stroke-linecap="round" stroke-linejoin="round"/>
  <rect x="31" y="98" width="18" height="7" rx="3" fill="#15191e"/>
  <rect x="79" y="98" width="18" height="7" rx="3" fill="#15191e"/>
</svg>